<svg xmlns="http://www.w3.org/2000/svg" width="590" height="440" style="width:100%;height:100%;transform:translate3d(0,0,0);content-visibility:visible"><defs><clipPath id="a"><path d="M0 0h590v440H0z"/></clipPath><clipPath id="b"><path d="M0 0h1000v1000H0z"/></clipPath></defs><g clip-path="url(#a)"><g clip-path="url(#b)" style="display:block" transform="translate(-217 -256)"><g style="display:block"><path fill="#FCFAD5" d="M750.832 352.998c0 25.251-20.47 45.721-45.721 45.721-25.25 0-45.719-20.47-45.719-45.721 0-25.251 20.469-45.721 45.719-45.721 25.251 0 45.721 20.47 45.721 45.721z"/><path fill="#F8E6FD" d="M315.304 323.234c4.656-3.57 9.673-7.981 14.859-7.981h.986c5.186 0 8.072 3.297 6.987 7.981l-.542 2.336s10.644-17.21 16.628-23.281c4.191-4.251 9.79-8.343 15.125-8.343h.331c5.335 0 8.216 3.486 6.895 8.343 0 0-1.664 9.767-2.479 12.964-1.384 5.421-6.846 21.307-6.846 21.307H305.25s5.184-9.592 10.054-13.326zM542.639 312.512c5.044-5.236 11.985-9.888 18.412-9.888h1.221c6.427 0 10.003 4.084 8.657 9.888l-.671 2.894s11.356-20.971 19.584-29.601c5.104-5.354 13.151-9.584 19.762-9.584h.409c6.611 0 10.182 4.321 8.544 10.339l-6.698 24.617 4.043-5.819c4.253-6.123 12.194-10.56 18.897-10.56 6.703 0 10.268 4.437 8.483 10.56 0 0-1.406 9.55-2.316 12.629-.848 2.865-4.587 11.038-4.587 11.038H530.181s6.861-10.703 12.458-16.513zM644.217 430.966l-17.564.076c-3.998-6.751-11.358-11.258-19.805-11.222-12.527.055-22.761 10.072-23.18 22.512l28.896-.125 17.269-.075 25.861-.113c-.211-6.144-5.277-11.08-11.477-11.053z"/><path fill="#506174" d="M720.74 692.646H324.42a8.796 8.796 0 0 1-8.796-8.795 8.796 8.796 0 0 1 8.796-8.795H720.74a8.795 8.795 0 0 1 0 17.59z"/></g><g style="display:block"><path fill="#A27D11" d="M438.94 460.862h51.586a7.14 7.14 0 0 0 7.14-7.14v-88.917a7.141 7.141 0 0 0-7.14-7.14H438.94a7.142 7.142 0 0 0-7.141 7.14v88.916a7.141 7.141 0 0 0 7.14 7.141z"/><path fill="#EEB818" d="M429.936 460.862h51.586a7.14 7.14 0 0 0 7.14-7.14v-88.917a7.141 7.141 0 0 0-7.14-7.14h-51.586a7.142 7.142 0 0 0-7.141 7.14v88.916a7.141 7.141 0 0 0 7.14 7.141z"/><path fill="#284E66" d="M471.004 464.195h-30.55a3.61 3.61 0 0 1 0-7.222h30.55a3.61 3.61 0 0 1 0 7.222z"/><path fill="#284E66" d="M434.32 465.641a2.522 2.522 0 0 1-2.521-2.522v-5.44a2.523 2.523 0 1 1 5.044 0v5.44a2.522 2.522 0 0 1-2.522 2.522zM477.372 465.641a2.522 2.522 0 0 1-2.522-2.522v-5.44a2.523 2.523 0 1 1 5.044 0v5.44a2.522 2.522 0 0 1-2.522 2.522z"/><path fill="#A27D11" d="M435.444 424.727s7.429 2.593 20.285 2.593c13.708 0 20.285-2.593 20.285-2.593V390.39s-8.197 2.593-20.285 2.593c-11.506 0-20.285-2.593-20.285-2.593v34.337z"/><path fill="#F8FAFB" d="M465.475 376.481h-19.492a3.978 3.978 0 0 1-3.974-3.973v-24.087h27.44v24.087a3.977 3.977 0 0 1-3.974 3.973zm-21.737-26.33v22.357a2.247 2.247 0 0 0 2.245 2.244h19.492a2.247 2.247 0 0 0 2.245-2.244V350.15h-23.982z"/><path fill="#284E66" d="M471.68 350.528h-32.332a2.006 2.006 0 1 1 0-4.012h32.333a2.006 2.006 0 1 1 0 4.012z"/></g><g style="display:block"><path fill="#F8FAFB" d="M450.543 423.884c1.292-13.345-8.48-25.211-21.824-26.504-13.345-1.292-25.212 8.479-26.504 21.824-1.292 13.346 8.478 25.212 21.824 26.504 13.345 1.292 25.212-8.48 26.504-21.824z"/><g opacity=".5"><path fill="#B8ECDE" d="M412.675 441.585a24.15 24.15 0 0 0 11.364 4.123c13.345 1.293 25.21-8.478 26.504-21.824.627-6.478-1.358-12.603-5.088-17.344-1.503 27.366-21.093 33.64-32.78 35.045z"/></g><path fill="#B8ECDE" d="M439.256 435.36a18.703 18.703 0 0 0 5.088 2.514 24.3 24.3 0 0 1-1.297 1.31c-10.742-3.964-14.874-16.057-15.741-19.033a5.403 5.403 0 0 1-1.526.347 77.569 77.569 0 0 0-3.681.356c.575 3.413 3.574 16.66 15.879 22.017-.637.347-1.291.664-1.96.953-11.991-6.014-15-19.251-15.594-22.747-4.222.61-7.675 1.51-10.488 2.539.308 2.76 2.248 14.163 13.35 22a24.39 24.39 0 0 1-3.757-.784c-8.728-7.61-10.762-17.265-11.215-20.583-2.314.969-4.115 2.015-5.53 3.016a23.91 23.91 0 0 1-.376-1.856c4.239-2.811 11.39-5.736 23.249-6.598a3.819 3.819 0 0 0 2.972-1.825 18.287 18.287 0 0 0 1.643-3.534c-2.963-.652-13.55-2.297-27.674 3.207.142-.693.315-1.375.514-2.044 10.203-3.794 18.482-3.945 23.44-3.465 1.939.188 3.365.469 4.207.668.468-1.861.745-4.084.6-6.651-2.488-.301-11.635-1.088-24.151 1.487a24.39 24.39 0 0 1 1.8-2.064c10.516-1.912 18.435-1.51 21.689-1.195.186.018.35.035.507.052-.227-1.825-.675-3.808-1.4-5.935.643.09 1.275.21 1.899.35 3.128 10.027.253 16.913-1.63 20.004a5.52 5.52 0 0 1-1.254 1.426c.198.778.973 3.559 2.646 6.789 2.022-1.75 7.959-8.273 8.455-24.691.577.389 1.133.803 1.672 1.238-.743 16.93-7.202 23.335-9.29 24.972 1.343 2.283 3.134 4.659 5.475 6.632 1.49-.685 7.643-4.462 11.383-21.091.389 1.053.703 2.137.944 3.247-3.46 13.11-8.45 17.545-10.848 18.973z"/></g><g style="display:block"><path fill="#0F4466" d="M524.252 403.312h-43.394v-19.764c0-5.593 4.548-10.14 10.14-10.14h23.114c5.59 0 10.14 4.547 10.14 10.14v19.764zm-39.784-3.61h36.174v-16.154a6.538 6.538 0 0 0-6.53-6.531h-23.114a6.537 6.537 0 0 0-6.53 6.53v16.155z"/><path fill="#637A91" d="M549.875 458.125h-94.64a8.832 8.832 0 0 1-8.832-8.832v-54.014a8.833 8.833 0 0 1 8.833-8.832h94.639a8.832 8.832 0 0 1 8.832 8.832v54.014a8.831 8.831 0 0 1-8.832 8.832z"/><path fill="#0F4466" d="M446.403 415.46v33.315c0 5.164 4.185 9.35 9.349 9.35h93.604a9.352 9.352 0 0 0 9.35-9.35v-31.562c-45.43 17.392-86.164 8.624-112.303-1.753zM558.708 401.492v-5.696c0-5.164-4.187-9.35-9.351-9.35h-2.66c-.013.26-.04.517-.04.78 0 7.169 5.213 13.105 12.05 14.266zM456.336 387.226c0-.264-.025-.52-.04-.78h-.543a9.349 9.349 0 0 0-9.35 9.349v5.177c5.768-1.911 9.933-7.338 9.933-13.746z"/><path fill="#F8FAFB" d="M558.708 448.775v-4.916c-6.838 1.16-12.05 7.098-12.05 14.266h2.699c5.164 0 9.35-4.186 9.35-9.35z"/><path fill="#F8F8EA" d="M446.403 444.38v4.396a9.349 9.349 0 0 0 9.349 9.35h.583c0-6.41-4.164-11.835-9.932-13.746z"/><path fill="#F8FAFB" d="M531.138 458.125h3.044v-71.678h-3.044v71.678zM470.049 458.125h3.044v-71.678h-3.044v71.678z"/></g><g style="display:block"><path fill="#2D2414" d="M529.842 430.129h2.366v-8.306c0-.29.235-.525.525-.525h22.08c.29 0 .525.235.525.525v5.127h2.366v-5.127a2.894 2.894 0 0 0-2.891-2.89h-22.08a2.894 2.894 0 0 0-2.891 2.89v8.306z"/><path fill="#EEB818" d="M523.619 464.303h41.974c3.12 0 5.65-2.53 5.65-5.65v-26.86c0-3.12-2.53-5.65-5.65-5.65h-41.974a5.65 5.65 0 0 0-5.651 5.65v26.86c0 3.12 2.53 5.65 5.65 5.65z"/><path fill="#2D2414" d="M539.939 445.223c0 7.683 6.227 13.91 13.909 13.91 7.684 0 13.91-6.227 13.91-13.91s-6.226-13.911-13.91-13.911c-7.682 0-13.91 6.228-13.91 13.91z"/><path fill="#43361F" d="M542.533 445.223c0 6.25 5.066 11.316 11.315 11.316 6.25 0 11.317-5.066 11.317-11.316 0-6.25-5.067-11.316-11.317-11.316s-11.315 5.066-11.315 11.316z"/><path fill="#161309" d="M549.113 445.223a4.735 4.735 0 1 0 9.472 0 4.736 4.736 0 0 0-9.472 0z"/><path fill="#2D2414" d="M522.876 436.676h12.353c.653 0 1.185-.53 1.185-1.183s-.532-1.183-1.185-1.183h-12.353c-.653 0-1.184.53-1.184 1.183s.53 1.183 1.184 1.183zM522.876 442.039h12.353c.653 0 1.185-.53 1.185-1.183s-.532-1.183-1.185-1.183h-12.353a1.184 1.184 0 1 0 0 2.366zM522.876 447.402h12.353c.653 0 1.185-.53 1.185-1.183s-.532-1.183-1.185-1.183h-12.353c-.653 0-1.184.53-1.184 1.183s.53 1.183 1.184 1.183z"/></g><g style="display:block"><path fill="#AC6C28" d="M517.592 463.693H389.9a4.55 4.55 0 0 1-4.551-4.55v-21.635a4.55 4.55 0 0 1 4.55-4.55h127.692a4.551 4.551 0 0 1 4.552 4.55v21.634a4.551 4.551 0 0 1-4.552 4.551z"/><path fill="#89561F" d="M385.35 457.522a6.171 6.171 0 0 0 6.17 6.171h124.453a6.171 6.171 0 0 0 6.17-6.17v-9.814H385.35v9.813z"/><path fill="#F8FAFB" d="M411.97 452.101h-8.716a3.776 3.776 0 1 1 0-7.554h8.716a3.778 3.778 0 0 1 0 7.554zM504.239 452.101h-8.716a3.776 3.776 0 1 1 0-7.554h8.716a3.778 3.778 0 0 1 0 7.554z"/><path fill="#1F3346" d="M468.829 456.378h-30.166v-11.284a1.223 1.223 0 0 1 2.446 0v8.838h25.275v-8.838a1.222 1.222 0 1 1 2.445 0v11.284z"/><path fill="#1F3346" d="M467.606 458.212h-27.72a3.057 3.057 0 1 1 0-6.114h27.72a3.058 3.058 0 1 1 0 6.114z"/></g><g opacity=".619" style="display:block"><path fill="#58C7FF" d="m607.846 432.092.64-2.675-3.733-.89-1.18-.284-1.174 4a2.19 2.19 0 1 0 .502 1.972l.004-.026 1.074-3.29 3.867 1.193z" opacity="1"/></g><g style="display:block"><path fill="#06202F" d="M486.339 654.272c0 19.19-15.557 34.746-34.748 34.746-19.19 0-34.748-15.556-34.748-34.746 0-19.19 15.558-34.748 34.748-34.748 19.19 0 34.748 15.557 34.748 34.748z"/></g><g style="display:block"><path fill="#06202F" d="M715.599 652.987c0 19.19-15.558 34.746-34.748 34.746-19.191 0-34.748-15.556-34.748-34.746 0-19.19 15.557-34.748 34.748-34.748 19.19 0 34.748 15.557 34.748 34.748z"/></g><g style="display:block"><path fill="#A2C2C1" d="M332.867 654.052h-47.5l7.363-14.31h40.137v14.31zM579.875 454.81H377.382c-3.822 0-6.932 3.111-6.932 6.934v11.165h4.49v-11.165a2.446 2.446 0 0 1 2.442-2.443h11.075l-13.288 13.288 3.175 3.175 16.463-16.463h31.856l-13.288 13.288 3.174 3.175 16.463-16.463h38.925l-13.288 13.288 3.175 3.175 16.463-16.463h38.924l-13.288 13.288 3.175 3.175 16.463-16.463h38.924l-13.288 13.288 3.176 3.175 16.463-16.463h11.039a2.445 2.445 0 0 1 2.442 2.443v11.165h4.49v-11.165c0-3.823-3.11-6.934-6.932-6.934z"/><path fill="#FFD65A" d="M497.148 468.34h87.83a20.834 20.834 0 0 1 20.094 15.334l28.113 93.03 114.89 26.111a20.613 20.613 0 0 1 16.047 20.101v39.28H497.148V468.34z"/><path fill="#EBDBED" d="m708.197 593.751-75.013-17.049-28.112-93.029a20.835 20.835 0 0 0-20.095-15.334H503.43l-6.282 25.396v45.047l29.94 49.857 82.426 5.416h98.826l-.143-.304z"/><path fill="#EEB818" d="m561.86 576.702-25.188-99.292a11.707 11.707 0 0 0-11.407-9.07h-156.61a16.489 16.489 0 0 0-14.927 9.484l-41.757 88.977a49.044 49.044 0 0 0-4.646 20.838v67.223a7.334 7.334 0 0 0 7.333 7.334H653.63V622.34a17.456 17.456 0 0 0-11.484-16.403l-80.285-29.235z"/><path fill="#F8FAFB" d="m609.514 594.054-47.654-17.352-25.19-99.292a11.705 11.705 0 0 0-11.406-9.07h-156.61a16.491 16.491 0 0 0-14.928 9.485l-41.756 88.976a49.051 49.051 0 0 0-4.646 20.838v6.415h302.19z"/><path fill="#EECD6B" d="M635.617 636.221c-7.092-17.134-23.967-29.19-43.664-29.19-19.696 0-36.57 12.056-43.661 29.19H422.997c-7.091-17.134-23.965-29.19-43.662-29.19s-36.571 12.056-43.662 29.19h-28.35v18.643a7.333 7.333 0 0 0 7.334 7.333h338.971v-25.976h-18.011z"/><path fill="#A2C2C1" d="M766.173 669.162H637.329a4.144 4.144 0 0 1-4.144-4.145v-6.683a4.144 4.144 0 0 1 4.144-4.145h128.844a4.144 4.144 0 0 1 4.144 4.145v6.683a4.144 4.144 0 0 1-4.144 4.145z"/><path fill="#6B8885" d="M653.904 654.19h-16.066a4.653 4.653 0 0 0-4.654 4.651v5.668a4.653 4.653 0 0 0 4.654 4.653h16.066V654.19z"/><path fill="#EEB818" d="M451.432 593.937h81.105a7.469 7.469 0 0 1 7.469 7.47v53.872a7.469 7.469 0 0 1-7.47 7.47h-81.104a7.469 7.469 0 0 1-7.47-7.47v-53.873a7.469 7.469 0 0 1 7.47-7.469z"/><path fill="#F8FAFB" d="M451.027 610.107a2.806 2.806 0 0 0 2.545 2.794l21.883 2.036a2.807 2.807 0 0 0 3.066-2.795v-4.07a2.805 2.805 0 0 0-3.066-2.794l-21.883 2.035a2.806 2.806 0 0 0-2.545 2.794z"/><path fill="#B7F5FF" d="m541.083 495.306 20.777 81.397s26.006 7.643 51.496 5.653c17.279-1.348 19.829-5.653 19.829-5.653l-25.576-84.615a11.54 11.54 0 0 0-11.047-8.202h-46.608c-5.975 0-10.35 5.63-8.871 11.42zM456.78 493.162l-5.188 83.541h94.558l-17.765-84.33a10.69 10.69 0 0 0-10.461-8.488h-51.272a9.89 9.89 0 0 0-9.871 9.277z"/><path fill="#24E0FF" d="M605.879 576.964h-14.54v-13.526c0-6.79-5.504-12.294-12.294-12.294h-5.052a9.384 9.384 0 0 0 9.384-9.384v-6.256a9.384 9.384 0 0 0-9.384-9.385h-22.75c-.766 0-1.51.103-2.223.277l12.84 50.306s22.133 6.497 45.575 5.944l-1.556-5.682zM513.216 574.044h-14.54v-13.526c0-6.79-5.504-12.294-12.294-12.294h-5.052a9.384 9.384 0 0 0 9.384-9.384v-6.256a9.384 9.384 0 0 0-9.384-9.384h-22.75c-1.32 0-2.573.275-3.713.767l-1.411 22.727a9.333 9.333 0 0 0 5.125 1.53h-5.185l-.035.002-1.77 28.477h62.353l-.728-2.659z"/><path fill="#B7F5FF" d="m443.079 496.47-4.983 80.232h-111.47l32.97-81.363a18.34 18.34 0 0 1 17-11.454h54.655c6.834 0 12.252 5.764 11.828 12.585z"/><path fill="#E8586A" d="M316.142 626.847h-8.54a4.27 4.27 0 0 1-4.27-4.27v-14.375a4.268 4.268 0 0 1 4.27-4.268h8.54v22.913z"/><path fill="#A2C2C1" d="M562.38 576.85c3.729 1.037 27.562 7.333 50.977 5.506 15.39-1.202 19.092-4.746 19.718-5.507H562.38z"/><path fill="#FCFAD5" d="M687.498 632.746c0 6.98-5.66 12.64-12.64 12.64s-12.638-5.66-12.638-12.64 5.658-12.639 12.638-12.639c6.98 0 12.64 5.66 12.64 12.64z"/><path fill="#D9A716" d="M674.858 620.107c-.793 0-1.566.082-2.32.223 5.872 1.09 10.32 6.23 10.32 12.417 0 6.186-4.448 11.326-10.32 12.417a12.75 12.75 0 0 0 2.32.221c6.98 0 12.639-5.658 12.639-12.638 0-6.98-5.66-12.64-12.64-12.64z"/><path fill="#FCFAD5" d="M758.59 632.746c0 6.98-5.657 12.64-12.638 12.64-6.98 0-12.64-5.66-12.64-12.64s5.66-12.639 12.64-12.639 12.639 5.66 12.639 12.64z"/><path fill="#D9A716" d="M745.953 620.107c-.914 0-1.803.103-2.661.286 5.702 1.223 9.978 6.286 9.978 12.354 0 6.066-4.276 11.13-9.978 12.352.858.185 1.747.286 2.66.286 6.98 0 12.64-5.658 12.64-12.638 0-6.98-5.66-12.64-12.64-12.64zM727.209 627.24H696.43a2.665 2.665 0 0 1-2.667-2.667v-.654a2.666 2.666 0 0 1 2.667-2.666h30.778a2.664 2.664 0 0 1 2.665 2.666v.654a2.664 2.664 0 0 1-2.665 2.666zM727.209 635.928H696.43a2.666 2.666 0 0 1-2.667-2.666v-.654a2.666 2.666 0 0 1 2.667-2.666h30.778a2.664 2.664 0 0 1 2.665 2.666v.654a2.664 2.664 0 0 1-2.665 2.666zM727.209 644.617H696.43a2.667 2.667 0 0 1-2.667-2.667v-.653a2.666 2.666 0 0 1 2.667-2.666h30.778a2.664 2.664 0 0 1 2.665 2.666v.653a2.665 2.665 0 0 1-2.665 2.667z"/></g><g style="display:block"><path fill="#0F4466" d="M414.084 654.272c0 19.19-15.557 34.746-34.748 34.746-19.19 0-34.748-15.556-34.748-34.746 0-19.19 15.558-34.748 34.748-34.748 19.19 0 34.748 15.557 34.748 34.748z"/><path fill="#A2C2C1" d="M399.119 654.272c0 10.926-8.857 19.783-19.783 19.783-10.926 0-19.783-8.857-19.783-19.783 0-10.927 8.857-19.783 19.783-19.783 10.926 0 19.783 8.856 19.783 19.783z"/><path fill="#6B8885" d="M360.245 649.153a19.784 19.784 0 0 0-.692 5.118c0 10.927 8.857 19.784 19.782 19.784 9.888 0 18.057-7.26 19.525-16.738-18.298 2.875-30.63-2.019-38.615-8.164z"/></g><g style="display:block"><path fill="#0F4466" d="M626.702 654.019c0 19.19-15.557 34.746-34.748 34.746-19.19 0-34.748-15.556-34.748-34.746 0-19.191 15.558-34.748 34.748-34.748 19.19 0 34.748 15.557 34.748 34.748z"/><path fill="#A2C2C1" d="M611.737 654.019c0 10.926-8.857 19.783-19.783 19.783-10.926 0-19.783-8.857-19.783-19.783 0-10.927 8.857-19.783 19.783-19.783 10.926 0 19.783 8.856 19.783 19.783z"/><path fill="#6B8885" d="M572.864 648.9a19.784 19.784 0 0 0-.693 5.118c0 10.927 8.857 19.784 19.783 19.784 9.888 0 18.057-7.261 19.525-16.738-18.3 2.875-30.63-2.02-38.615-8.164z"/></g><path fill="#9C6C36" d="M-18.145 16.711c.001-.007.503-7.519.505-7.533C-16.132-.131-11.725-6.749-6.554-7.33L4.783-8.605c5.387-.607 10.359 5.432 12.273 14.908l.589 10.658-35.79-.25z" style="display:block" transform="translate(363.447 567.532)"/><g style="display:block"><path fill="#E65364" d="M311.953 557.33c-2.831 3.665-3.244 9.277-.324 12.87.474.583 1.054 1.123 1.777 1.326.707.197 1.465.045 2.16-.194 2.88-.994 5.028-3.39 7.647-4.95 4.667-2.784 8.008-.345 12.435-1.171 4.79-.892 5.108-5.959 1.629-9.678-5.862-6.266-20.396-4.579-25.324 1.798z"/><path fill="#C14655" d="M313.642 563.049s10.801-12.244 21.95-3.83c0 0-8.92-5.042-21.95 3.83z"/></g><g style="display:block"><path fill="#9C6C36" d="M353.737 537.238c-2.192-3.316-5.225-6.194-8.952-7.569-3.729-1.377-22.634 1.63-25.779 4.06-2.524 1.953 3.933 9.754 5.72 8.382 1.789-1.373 19.195-4.443 20.474-2.586"/><path fill="#D19048" d="M345.475 525.775a14.958 14.958 0 0 0-8.787 13.602l-.025 14.269-7.316 10.936a3.455 3.455 0 0 0-.091 3.685c1.781 3.02 6.678 7.997 19.276 6.53 17.76-2.069 19.163-9.316 19.163-9.316 2.61-6.243.824-27.275-2.1-32.698-1.783-3.301-4.633-5.902-8.157-7.192l-.652-.238a14.958 14.958 0 0 0-11.311.422z"/><path fill="#FFF6C9" d="M335.027 556.092c1.985.59 4.155.64 6.289.014 5.89-1.731 9.262-7.909 7.53-13.799-1.484-5.05-6.237-8.236-11.275-7.956a14.957 14.957 0 0 0-.884 5.026l-.025 14.27-1.635 2.445z"/><path fill="#153D54" d="M341.846 547.892c.11 1.864-.462 3.415-1.277 3.461-.813.048-1.562-1.424-1.672-3.288-.108-1.863.462-3.414 1.277-3.462.813-.047 1.562 1.425 1.672 3.289zM355.945 546.404c.109 1.864-.462 3.416-1.277 3.462-.813.048-1.562-1.426-1.672-3.289-.11-1.864.462-3.413 1.277-3.461.813-.047 1.562 1.424 1.672 3.288zM359.673 543.677s-5.61-2.605-8.548-2.791c0 0 .323-3.595 4.304-2.196 3.98 1.398 4.244 4.987 4.244 4.987zM336.954 547.676s2.573-4.068 4.42-5.427c0 0-1.728-2.217-3.744.375-2.017 2.593-.676 5.052-.676 5.052z"/><path fill="#D19048" d="M363.652 544.167c8.143-23.867-.122-33.751-3.746-35.383-3.624-1.632-22.692.054-25.997 2.26-2.655 1.774 3.246 10.005 5.124 8.759 1.88-1.244 24.162-6.467 20.91 9.908"/><path fill="#153D54" d="M351.8 567.474a.46.46 0 1 1-.885.258.46.46 0 0 1 .885-.258zM356.33 566.142a.46.46 0 1 1-.884.259.46.46 0 0 1 .884-.259zM354.856 569.007a.46.46 0 1 1-.884.258.46.46 0 0 1 .884-.258zM330.535 567.145a.395.395 0 1 1-.787-.044.395.395 0 0 1 .787.044zM334.585 567.368a.394.394 0 1 1-.787-.042.394.394 0 0 1 .787.042zM332.57 569.263a.395.395 0 1 1-.789-.045.395.395 0 0 1 .788.045zM341.937 563.388c-9.297 0-7.392 2.326-7.392 2.326.925 3.117 3.612 4.809 6.32 5.301.082 1.124.298 2.465.775 3.925.351.032.71.057 1.08.075a15.664 15.664 0 0 1-.834-3.872c2.29.163 4.435-.526 5.355-1.94 2.135-3.284 3.992-5.814-5.304-5.815z"/></g><g style="display:block"><path fill="#D13346" d="M424.366 507.204s10.713-14.565 16.516-5.492c5.803 9.074-3.327 17.795-13.687 17.062l-2.829-11.57zM424.233 504.822s-2.568-15.877-10.164-13.093c-7.586 2.78 2.485 23.368 2.485 23.368l7.679-10.275z"/><path fill="#EC6D31" d="M435.24 531.37c.863-4.207 1.343-10.243-.922-15.978l-15.003 3.197c.16 2.104.508 5.637 1.206 9.233l-5.811 1.832-6.631 12.14-5.484-10.973-10.866-5.83-9.562 1.958s-.906 26.64-5.462 32.022c0 0 17.532 12.506 35.432 4.36 21.083 7.504 28.896-5.88 28.896-5.88-4.11-5.647-6.397-17.366-5.793-26.08z"/></g><g style="display:block"><path fill="#9746EA" d="m381.565 576.621 3.366-9.534c1.77-5.019 5.738-8.256 10.118-8.256h27.726c4.069 0 7.809 2.8 9.739 7.287l4.517 10.503h-55.466z"/><path fill="#F1A98E" d="m414.99 536.063-16.647 15.306 1.77 9.597a3.667 3.667 0 0 0-.64.475c-1.4 1.277-2.194 3.08-2.431 4.96-.438 3.485-.002 7.192 3.804 7.474 7.72.568 7.127-8.484 18.116-15.043-1.461-.117-3.972-22.768-3.972-22.769z"/></g><g style="display:block"><path fill="#FF7878" d="M389.318 532.17c2.05 4.144.931 8.755-2.5 10.298-3.431 1.542-7.874-.566-9.924-4.71-2.051-4.145-.931-8.756 2.5-10.298 3.43-1.544 7.874.564 9.924 4.71z"/><path fill="#FCC4AD" d="m379.735 535.995 4.02-26.586 44.97 8.957-7.26 22.509.46-.473-.062.528c-1.303 11.125-7.312 19.26-23.44 19.106-16.138-.154-26.88-13.3-18.688-24.04z"/><path fill="#EC6D31" d="M414.77 515.588s-1.69 8.687 3.97 19.92l7.265-1.681 4.164-17.906-12.884-1.346"/><path fill="#FF7878" d="M385.418 536.542c-.153 1.3.916 2.494 2.387 2.665 1.47.173 2.785-.742 2.937-2.041.153-1.3-.634-4.904-2.104-5.076-1.47-.172-3.068 3.152-3.22 4.452z"/><path fill="#530A53" d="M381.786 530.5c-.182 1.546.22 2.864.894 2.942.676.08 1.37-1.111 1.55-2.656.182-1.546-.219-2.86-.895-2.94-.675-.08-1.368 1.108-1.55 2.654z"/><path fill="#B05225" d="M380.262 526.382s5.14-2.542 7.851-2.424c0 0-.566-4.387-4.222-3.137-3.655 1.251-3.63 5.56-3.63 5.56z"/><path fill="#530A53" d="M399.93 532.625c-.181 1.546-.874 2.734-1.55 2.655-.675-.08-1.076-1.395-.894-2.941.181-1.545.874-2.735 1.55-2.656.675.08 1.076 1.396.894 2.942z"/><path fill="#B05225" d="M405.441 530.166s-6.298-4.403-9.854-5.267c0 0 1.173-4.33 5.742-1.756 4.57 2.575 4.112 7.023 4.112 7.023z"/><path fill="#FF7878" d="M400.526 542.328c.078.01.16.004.24-.023a.512.512 0 0 0 .334-.662l-1.311-3.58a.558.558 0 0 0-.695-.326.51.51 0 0 0-.333.661l1.31 3.581a.552.552 0 0 0 .455.35zM403.94 542.728c.078.01.16.002.24-.024a.512.512 0 0 0 .334-.662l-1.311-3.579a.559.559 0 0 0-.696-.326.511.511 0 0 0-.334.66l1.312 3.582a.55.55 0 0 0 .455.349zM380.006 539.924a.547.547 0 0 0 .522-.236l2.103-3.178a.512.512 0 0 0-.17-.722.56.56 0 0 0-.752.156l-2.103 3.18a.511.511 0 0 0 .172.721c.071.044.15.07.228.079z"/><path fill="#FCC4AD" d="M417.014 534.537c-2.95 4.159-2.53 9.374.94 11.65 3.47 2.273 8.674.745 11.623-3.415 2.95-4.159 2.53-9.375-.94-11.648-3.47-2.275-8.674-.747-11.623 3.413z"/><path fill="#FFF" d="M416.85 546.097a1.98 1.98 0 1 0 3.936.462 1.981 1.981 0 0 0-3.935-.462z"/><path fill="#FF7878" d="M418.15 543.27c.036-.18.09-.331.13-.504a3.255 3.255 0 0 0-.09.31c.129-.902.353-1.627.66-2.18 2.802-7.298 10.245-7.193 10.245-7.193-3.977 1.714-6.582 3.815-8.253 5.611 2.766-.72 6.598 1.94 6.598 1.94-4.705-1.797-7.03-1.037-8.182.026-.818 1.194-1.108 1.99-1.108 1.99z"/><path fill="#161D33" d="M396.324 541.305c.098.361.054.748.023 1.16-.375 5.083-2.37 7.555-4.142 8.753-1.642 1.112-3.734 1.052-5.371-.008-4.095-2.651-3.818-7.558-3.401-9.918 0 0 4.52 2.826 12.891.013z"/><path fill="#D13346" d="M384.7 549.135c2.324-2.78 5.954-4.36 9.762-3.853.477.063.937.168 1.388.29v.001c-.811 3.128-2.368 4.805-3.76 5.711-1.59 1.013-3.567.959-5.15-.015a7.708 7.708 0 0 1-.644-.45c-.09-.07-.184-.14-.269-.213a7.195 7.195 0 0 1-.334-.306 7.526 7.526 0 0 1-.426-.441c-.076-.086-.154-.17-.224-.257a6.14 6.14 0 0 1-.248-.33 6.806 6.806 0 0 1-.096-.137z"/><path fill="#EC6D31" d="M387.15 500.262c-6.915 1.46-10.303 7.227-10.62 12.654-.14 2.374 2.28 4.38 4.69 4.31 2.4-.066 4.451-1.513 6.339-2.898 2.41 2.552 5.724 4.208 9.14 4.585.902.1 1.934.063 2.528-.604.34-.384.328-1.007.094-1.447 5.57 3.404 12.794 5.33 19.197 6.253l17.168-2.471c-1.364-5.228-2.598-30.082-48.536-20.382z"/></g><g style="display:block"><path fill="#FF6B6B" d="M573.238 555.207c-.854.953-1.905 1.794-2.936 2.635-2.131.094-6.22.164-8.37-.513-2.051-.645-2.035-2.753-2.035-2.753s6.082-1.54 10.45-2.629a9.676 9.676 0 0 0 1.487-.519c.125 1.366.578 2.695 1.404 3.78z"/><path fill="#0F4466" d="M544.142 567.172a25.963 25.963 0 0 0-4.244 9.398h4.118c.34-1.257.796-2.466 1.342-3.627l-1.216-5.77zM565.333 556.24c-2.92 0-5.721.497-8.343 1.386l.99 3.876a21.96 21.96 0 0 1 7.353-1.263c2.29 0 4.492.367 6.57 1.018l-5.334 15.592 6.67-.278 7.972-9.56a22.075 22.075 0 0 1 5.438 9.56h4.119c-2.626-11.623-13.03-20.332-25.435-20.332z"/><path fill="#FAA79C" d="M576.919 568.794c1.875.348 3.81.693 5.755.25 1.943-.443 3.92-1.879 4.457-3.864.388-1.437-.028-2.877-.583-4.142-1.794-4.088-5.118-7.306-9.207-8.916-3.12-1.227-7.383-1.223-9.707 1.711-1.094 1.38-1.523 3.137-1.803 4.823-.184 1.112-.296 2.338.317 3.177 1.235 1.694 4.204.523 5.982 1.607 1.12.682 1.53 2.105 2.222 3.237 2.006 3.284 7.058 3.92 10.405 1.311"/></g><g style="display:block"><path fill="#6969D5" d="m470.904 576.675 4.216-9.534a13.861 13.861 0 0 1 12.678-8.256h34.737c5.098 0 9.785 2.8 12.203 7.287l7.66 10.503h-71.494z"/><path fill="#EA9387" d="m501.119 535.786 16.646 15.307-2.133 9.961c.933.536 1.83 1.14 2.857 2.03.965 3.93 1.747 10.147-3.227 10.514-7.721.57-7.133-8.926-18.122-15.486 1.46-.116 3.979-22.326 3.979-22.326z"/><path fill="#FAA79C" d="m531.139 576.707-1.663-2.818a6.71 6.71 0 0 0-5.65-3.224l-6.61-.083a15.443 15.443 0 0 0-9.408 3.05l-4.254 3.162-20.394 7.331s9.552-11.273 9.767-15.942c.249-5.398-5.113-8.264-8.03-8.533-9.25-.85-32.412 33.555-24.948 37.957 16.109 9.501 38.765-3.184 52.474-13.062 1.547-1.115 2.817-1.729 4.427-2.049 1.478-.293 2.83-.86 3.814-1.792 2.554-2.419 5.795-3.98 9.313-3.992l1.162-.005z"/><path fill="#6969D5" d="M465.67 577.407c4.759-1.095 11.787-1.312 21.617 1.435 2.612-3.58 5.52-8.106 5.639-10.66.249-5.397-5.113-8.263-8.03-8.532-4.752-.437-13.17 8.432-19.226 17.757z"/></g><g style="display:block"><path fill="#041F2F" d="m525.32 515.476.525 26.224s12.718-5.433 5.602-29.532l-6.127 3.308z"/><path fill="#FAA79C" d="M505.996 562.571c20.366 5.612 23.71-4.205 23.672-19.151l-.188-23.147c-.062-11.029-8.21-19.784-18.106-18.51-4.16.439-8.316 1.005-12.463 1.703-10.017 1.9-18.055 10.54-18.147 18.232-.033 5.653 2.236 11.55 3.578 17.045 4.42 18.105 7.84 20.087 21.654 23.828z"/><path fill="#041F2F" d="M534.433 506.698c-1.9-6.781-11.528-19.614-34.192-15.756-2.638.448-4.94 1.012-6.971 1.66-6.602 3.845-6.232 10.412-6.232 10.412-5.003-.122-9.015 6.422-9.015 6.422-2.09 2.912-4.807 9.222-1.642 21.463l14.605 7.566s4.006-8.329 1.553-21.53c11.478 4.179 28.828 8.164 39.27-1.16 2.477-2.21 3.557-5.747 2.624-9.077z"/><path fill="#FF6B6B" d="M520.549 542.426c.045 2.279-1.064 2.985-2.45 2.985-1.39-.001-2.533-.71-2.579-2.996-.033-1.655 1.007-6.057 2.398-6.047 1.386.009 2.598 4.41 2.63 6.058zM517.891 549.872c.298.005.575-.006.826-.029.3-.026.515-.31.48-.633-.036-.323-.303-.561-.61-.538-.237.02-5.807.446-6.82-4.23-.07-.321-.365-.528-.664-.468-.298.06-.484.37-.415.69.886 4.086 4.728 5.171 7.203 5.208z"/><path fill="#530953" d="M525.573 534.961c.032 1.596-.492 2.878-1.17 2.865-.68-.013-1.255-1.318-1.287-2.915-.032-1.598.492-2.882 1.17-2.866.679.015 1.255 1.321 1.287 2.916z"/><path fill="#041F2F" d="M530.326 532.41s-7.376-4.547-11.024-5.194c0 0 1.86-5.77 6.718-3.283 4.826 2.471 4.306 8.477 4.306 8.477z"/><path fill="#530953" d="M507.14 534.509c.033 1.615.62 2.937 1.315 2.95.692.012 1.227-1.285 1.195-2.897-.032-1.613-.62-2.933-1.312-2.95-.695-.015-1.23 1.28-1.198 2.897z"/><path fill="#041F2F" d="M501.694 532.304s8.302-4.898 11.98-5.291c0 0-2.744-5.601-7.63-3.467-4.92 2.149-4.35 8.758-4.35 8.758z"/><path fill="#FF6B6B" d="M505.6 545.34a.54.54 0 0 1-.243-.062.626.626 0 0 1-.276-.796l1.681-3.835a.528.528 0 0 1 .738-.26c.28.147.403.504.275.796l-1.68 3.833a.529.529 0 0 1-.495.325zM502.072 545.278a.547.547 0 0 1-.244-.063.629.629 0 0 1-.278-.798l1.69-3.845a.53.53 0 0 1 .74-.26.629.629 0 0 1 .279.798l-1.69 3.842a.532.532 0 0 1-.497.326zM526.457 545.71a.565.565 0 0 1-.496-.339l-1.79-3.851c-.137-.294-.03-.64.238-.775.268-.134.594-.007.73.287l1.789 3.85c.136.293.03.64-.238.776a.487.487 0 0 1-.233.053zM528.559 541.103c-.136-.294-.463-.42-.73-.288-.267.134-.372.482-.236.775l1.784 3.844a.554.554 0 0 0 .265.264c.016-.72.026-1.453.025-2.202l-1.108-2.393z"/><path fill="#FAA79C" d="M490.17 534.676c2.954 5.778 1.897 12.305-2.374 14.61-4.293 2.317-10.229-.5-13.243-6.321-3.026-5.848-1.939-12.455 2.418-14.728 4.33-2.259 10.235.638 13.2 6.439z"/><path fill="#FF6B6B" d="M487.89 545.551c-.022-.233-.068-.435-.097-.662.037.164.06.3.073.409-.05-1.167-.232-2.124-.528-2.88-2.455-9.758-11.197-10.968-11.197-10.968 4.487 2.902 7.302 6.039 9.053 8.616-3.15-1.398-7.948 1.328-7.948 1.328 5.724-1.475 8.354-.107 9.576 1.442.818 1.656 1.068 2.715 1.068 2.715z"/></g><g style="display:block"><path fill="#A65029" d="M551.34 547.106c.118-.105 6.617 19.646 6.38 20.346 14.362-.825 27.685-14.104 28.398-18.939 1.53-10.367-8.125-11.498-8.125-11.498s-10.41-3.389-26.653 10.091z"/><path fill="#9746EA" d="m607.066 577.563-3.138-8.889c-1.652-4.679-5.351-7.697-9.434-7.697h-25.85c-3.793 0-7.281 2.61-9.081 6.794l-4.211 9.792h51.714z"/><path fill="#F1A98D" d="m575.902 539.748 15.52 14.271-1.65 8.948c.218.125.41.274.595.442 1.306 1.191 2.048 2.87 2.267 4.624.409 3.25.002 6.706-3.546 6.968-7.2.531-6.643-7.909-16.89-14.024 1.363-.11 3.704-21.228 3.704-21.229z"/></g><g style="display:block"><path fill="#FCC8B5" d="M586.715 559.757c15.584 2.778 20.008-10.575 19.111-21.527l-1.425-17.4c-.667-8.14-8.109-14.173-16.62-13.476l-10.646.872c-8.511.697-14.872 7.86-14.205 16l1.425 17.401c.897 10.951 15.14 16.843 22.36 18.13z"/><path fill="#EC7339" d="M607.931 513.165a25.787 25.787 0 0 0-4.818-10.025c-.252-.32-.51-.634-.779-.94-.53-.615-1.091-1.202-1.677-1.76a25.163 25.163 0 0 0-1.376-1.21 25.064 25.064 0 0 0-6.747-3.99 24.545 24.545 0 0 0-5.948-1.519 24.717 24.717 0 0 0-5.068-.104c-.802.065-1.6.214-2.367.451-10.418 3.229-12.36 11.543-12.36 11.543s-.106.01-.296.038c-1.107.12-2.168.403-3.158.828-5.54 2.054-15 8.828-6.87 30.656l4.868.683 3.412 3.772 4.654-3.209s4.94-3.058 4.604-22.094c12.735 8.724 29.324 10.776 30.788 11.037l.512 6.248h.002c2.639-.978 4.303-3.44 4.088-6.057l-.86-10.498a26.344 26.344 0 0 0-.604-3.85z"/><path fill="#FF7878" d="M598.857 539.106c.152 1.849-.566 3.416-1.602 3.5-1.037.086-2-1.344-2.151-3.192-.151-1.848.285-6.845 1.322-6.93 1.036-.084 2.28 4.774 2.431 6.622zM597.283 546.504c.29-.023.558-.06.8-.101a.518.518 0 0 0 .433-.596c-.05-.276-.322-.459-.62-.41-.228.04-5.592.924-6.808-3.028a.535.535 0 0 0-.663-.34.512.512 0 0 0-.363.636c1.062 3.449 4.823 4.036 7.221 3.84z"/><path fill="#530E53" d="M604.002 532.771c.125 1.52-.313 2.8-.977 2.854-.665.055-1.305-1.136-1.43-2.657-.124-1.52.314-2.799.979-2.853.664-.055 1.304 1.135 1.428 2.656z"/><path fill="#B0562C" d="M608.488 529.4s-6.878-3.082-10.463-3.26c0 0 .629-4.296 5.505-2.657 4.875 1.638 4.958 5.917 4.958 5.917z"/><path fill="#530E53" d="M586.141 534.234c.125 1.52.764 2.712 1.429 2.657.665-.054 1.102-1.333.977-2.854-.124-1.521-.764-2.71-1.428-2.656-.665.054-1.102 1.332-.978 2.853z"/><path fill="#B0562C" d="M580.823 531.635s6.326-4.1 9.841-4.827c0 0-1.002-4.285-5.569-1.917-4.568 2.368-4.272 6.744-4.272 6.744z"/><path fill="#FF7878" d="M585.227 543.727a.568.568 0 0 1-.236-.033.499.499 0 0 1-.303-.658l1.408-3.465a.546.546 0 0 1 .69-.296c.277.1.413.397.306.66l-1.409 3.465a.536.536 0 0 1-.456.327zM581.866 544.002a.555.555 0 0 1-.234-.033.498.498 0 0 1-.304-.658l1.407-3.464a.547.547 0 0 1 .692-.297.5.5 0 0 1 .304.66l-1.409 3.465a.534.534 0 0 1-.456.327zM605.426 542.073a.536.536 0 0 1-.504-.249l-1.954-3.189a.502.502 0 0 1 .192-.701.546.546 0 0 1 .731.18l1.953 3.19a.5.5 0 0 1-.192.698.563.563 0 0 1-.226.07z"/><path fill="#FCC8B5" d="M569.33 535.524c2.749 4.178 2.158 9.276-1.321 11.387-3.48 2.111-8.53.435-11.28-3.742-2.749-4.18-2.157-9.278 1.321-11.39 3.48-2.11 8.53-.434 11.28 3.745z"/><path fill="#FFF" d="M569.093 546.864a1.944 1.944 0 1 1-3.875.315 1.944 1.944 0 0 1 3.875-.315z"/><path fill="#FF7878" d="M567.916 544.047c-.03-.177-.078-.328-.11-.5.037.124.062.226.078.308-.096-.889-.291-1.605-.574-2.159-2.497-7.25-9.797-7.402-9.797-7.402 3.84 1.817 6.322 3.964 7.898 5.784-2.685-.8-6.533 1.676-6.533 1.676 4.675-1.601 6.928-.777 8.02.305.761 1.198 1.018 1.988 1.018 1.988z"/></g><g style="display:block"><path fill="#F9FBFC" d="m547.082 519.627-9.75 2 10 59.75 18.25-.5-18.5-61.25z"/><path fill="none" d="m547.082 519.627-9.75 2 10 59.75 18.25-.5-18.5-61.25z"/><path fill="#F9FBFC" d="M448.423 576.481v11.25h-125.5v-11.25h125.5z"/><path fill="none" d="M448.423 576.481v11.25h-125.5v-11.25h125.5z"/></g><path fill="none" stroke="#39D2FF" stroke-linecap="round" stroke-width="5" d="M15.651 126H-4" style="display:block" transform="translate(611 432)"/></g></g></svg>